<svg version="1.2" xmlns="http://www.w3.org/2000/svg" viewBox="0 0 88 27" width="88" height="27"><style>.a{fill:#202020}</style><path fill-rule="evenodd" class="a" d="m11.4 18.4l0.3 1.3-0.7 1.5h7.7l-0.6-1.3 0.2-1.5-0.7-1.6h-5.5zm-2.7 7.5h-6.7l12.8-25.9 12.9 25.9h-6.7l-2.3-4.7h2.6l-0.4-4.5h-3.3l-2.7-6.2-2.7 6.2h-3.3l-0.4 4.5h2.5z"/><path class="a" d="m39.5 14q-0.1-0.2-0.3-0.4-0.2-0.1-0.5-0.2-0.2-0.1-0.5-0.2-0.2 0-0.5 0-0.2 0-0.3 0-0.2 0.1-0.4 0.1-0.2 0.1-0.4 0.1-0.2 0.1-0.3 0.2-0.2 0.1-0.3 0.2-0.2 0.1-0.3 0.2-0.1 0.1-0.2 0.3-0.1 0.1-0.2 0.3-0.1 0.2-0.2 0.4 0 0.2-0.1 0.4 0 0.2 0 0.4 0 0.2 0 0.4v9.7h-5.3v-16h5.3v2.4q0.2-0.3 0.4-0.6 0.2-0.3 0.4-0.5 0.2-0.3 0.5-0.5 0.3-0.2 0.6-0.4 0.3-0.2 0.7-0.4 0.4-0.1 0.7-0.2 0.4-0.1 0.8-0.1 0.4-0.1 0.8-0.1 0.6 0 1.2 0.1 0.6 0.1 1.1 0.3 0.6 0.2 1.1 0.5 0.5 0.3 0.9 0.7 0.4 0.5 0.7 1.1 0.2 0.5 0.4 1.1 0.2 0.5 0.3 1.1 0 0.6 0 1.2v10.3h-5.5v-9.7q0-0.3 0-0.6-0.1-0.3-0.1-0.5-0.1-0.3-0.2-0.6-0.1-0.3-0.3-0.5z"/><path fill-rule="evenodd" class="a" d="m49.9 13.2q0.3-0.5 0.6-0.9 0.4-0.4 0.8-0.8 0.4-0.4 0.9-0.7 0.5-0.3 1-0.5 1.1-0.6 2.2-0.8 1.2-0.3 2.4-0.3 1.3 0 2.4 0.3 1.2 0.2 2.3 0.8 0.5 0.2 1 0.5 0.4 0.3 0.9 0.7 0.4 0.4 0.7 0.8 0.4 0.4 0.7 0.9 0.3 0.5 0.5 1 0.3 0.5 0.4 1.1 0.2 0.6 0.2 1.1 0.1 0.6 0.1 1.2 0 0.6-0.1 1.1 0 0.6-0.2 1.2-0.1 0.5-0.4 1.1-0.2 0.5-0.5 1-0.3 0.5-0.7 0.9-0.3 0.4-0.7 0.8-0.5 0.4-0.9 0.7-0.5 0.3-1 0.5-1.1 0.5-2.3 0.8-1.1 0.3-2.4 0.3-1.2 0-2.4-0.3-1.1-0.3-2.2-0.8-0.5-0.2-1-0.5-0.5-0.3-0.9-0.7-0.4-0.4-0.8-0.8-0.3-0.4-0.6-0.9-0.3-0.5-0.5-1-0.3-0.5-0.4-1.1-0.2-0.6-0.2-1.1-0.1-0.6-0.1-1.2 0-0.6 0.1-1.1 0-0.6 0.2-1.2 0.1-0.6 0.4-1.1 0.2-0.5 0.5-1zm4.7 6.5q0.1 0.2 0.3 0.4 0.1 0.2 0.3 0.4 0.2 0.2 0.4 0.3 0.2 0.2 0.4 0.3 0.4 0.2 0.9 0.4 0.5 0.1 1 0.1 0.5 0 0.9-0.1 0.5-0.2 0.9-0.4 0.3-0.1 0.4-0.3 0.2-0.1 0.4-0.3 0.2-0.2 0.3-0.4 0.2-0.2 0.3-0.4 0.1-0.2 0.2-0.5 0.1-0.2 0.2-0.5 0.1-0.3 0.1-0.6 0-0.2 0-0.5 0-0.3 0-0.6 0-0.2-0.1-0.5-0.1-0.3-0.2-0.6-0.1-0.2-0.2-0.5-0.1-0.2-0.3-0.4-0.1-0.2-0.3-0.4-0.2-0.2-0.4-0.3-0.2-0.2-0.4-0.3-0.6-0.4-1.4-0.5-0.7-0.1-1.4 0.1-0.7 0.2-1.3 0.7-0.6 0.4-1 1.1-0.1 0.2-0.2 0.5-0.1 0.3-0.2 0.5-0.1 0.3-0.1 0.6 0 0.3 0 0.6 0 0.2 0 0.5 0 0.3 0.1 0.6 0.1 0.2 0.2 0.5 0.1 0.3 0.2 0.5z"/><path class="a" d="m80 14q-0.2-0.2-0.4-0.4-0.2-0.1-0.4-0.2-0.2-0.1-0.5-0.2-0.2 0-0.5 0-0.2 0-0.4 0-0.2 0.1-0.3 0.1-0.2 0.1-0.4 0.1-0.2 0.1-0.3 0.2-0.2 0.1-0.4 0.2-0.1 0.1-0.2 0.2-0.2 0.1-0.3 0.3-0.1 0.1-0.1 0.3-0.1 0.2-0.2 0.4-0.1 0.2-0.1 0.4-0.1 0.2-0.1 0.4 0 0.2 0 0.4v9.7h-5.3v-16h5.3v2.4q0.2-0.3 0.4-0.6 0.2-0.3 0.4-0.5 0.2-0.3 0.5-0.5 0.3-0.3 0.6-0.4 0.3-0.2 0.7-0.4 0.4-0.1 0.7-0.2 0.4-0.1 0.8-0.1 0.4-0.1 0.8-0.1 0.6 0 1.2 0.1 0.6 0 1.1 0.2 0.6 0.2 1.1 0.6 0.5 0.3 0.9 0.7 0.4 0.5 0.7 1 0.3 0.6 0.4 1.2 0.2 0.5 0.3 1.1 0 0.6 0 1.2v10.3h-5.5v-9.7q0-0.3 0-0.6 0-0.3-0.1-0.5 0-0.3-0.2-0.6-0.1-0.3-0.2-0.5z"/></svg>